<?xml version="1.0" encoding="utf-8"?>
<!-- Svg Vector Icons : http://www.onlinewebfonts.com/icon -->
<!DOCTYPE svg PUBLIC "-//W3C//DTD SVG 1.1//EN" "http://www.w3.org/Graphics/SVG/1.1/DTD/svg11.dtd">
<svg version="1.1" xmlns="http://www.w3.org/2000/svg" xmlns:xlink="http://www.w3.org/1999/xlink" x="0px" y="0px" viewBox="0 0 1000 1000" enable-background="new 0 0 1000 1000" xml:space="preserve">
<metadata> Svg Vector Icons : http://www.onlinewebfonts.com/icon </metadata>
<g><path d="M20.8,505.9L10,532.5c1.1,252.3,209.4,457.7,464.2,457.7c254.8,0,463.1-205.3,464.2-457.7l-3.3-26.7H20.8z M474.3,929.6c-211,0-375.8-158.2-392.5-363.1h792.5C857.6,771.4,685.2,929.6,474.3,929.6z M747.5,441.6c39.1,0,52.2-39.6,39.6-66.5L897,49.7c5.3-15.9-3.3-33-19.3-38.3c-16.2-5.3-33.3,3.3-38.7,19.1L729.6,354.2C689.2,370.4,695.1,441.6,747.5,441.6z M598.4,343.3c59.2,0,59.2-90.8,0-90.8S539.3,343.3,598.4,343.3z M598.4,479.5c59.2,0,59.2-90.8,0-90.8S539.3,479.5,598.4,479.5z M395.9,475.7c59.2,0,59.2-90.8,0-90.8C336.8,384.9,336.8,475.7,395.9,475.7z M487.6,381.1c59.2,0,59.2-90.8,0-90.8C428.5,290.3,428.5,381.1,487.6,381.1z M231.5,479.5c59.2,0,59.2-90.8,0-90.8C172.4,388.7,172.4,479.5,231.5,479.5z M969.1,72c-16.2-5.3-33.3,3.3-38.7,19.1L817.9,424.4c-5.4,15.9,3.3,33,19.3,38.3c3.2,1.1,6.5,1.6,9.7,1.6c12.8,0,24.8-8.1,29-20.7l112.6-333.3C993.8,94.4,985.1,77.3,969.1,72z"/></g>
</svg>